<?xml version="1.0" encoding="UTF-8"?>
<svg id="Calque_1" data-name="Calque 1" xmlns="http://www.w3.org/2000/svg" viewBox="0 0 331 291">
  <defs>
    <style>
      .cls-1 {
        fill: #1D2A62;
        stroke-width: 0px;
      }
    </style>
  </defs>
  <g>
    <path class="cls-1" d="M120.75,147.43l-1.5-.02.11-8.23c-1.81-.5-4.48-1.65-5.68-4.23-.07-.15-.39-.88-.53-1.75-.72-4.51,4.55-12.13,6.18-14.36l.56-.76.62.71c1.29,1.49,7.67,9.19,6.85,14.1-.15.9-.49,1.67-.56,1.82-1.29,2.72-4.07,3.93-5.94,4.45l-.11,8.25ZM115.04,134.32c1.04,2.21,3.56,3.13,5.08,3.5,1.58-.39,4.21-1.38,5.32-3.72h0c.03-.07.32-.71.44-1.44.62-3.73-4.09-9.94-5.89-12.14-2.88,4.09-5.82,9.51-5.35,12.45.11.69.38,1.28.41,1.35h0Z"/>
    <g>
      <path class="cls-1" d="M189.99,148.31c-4.42,0-8.01-3.59-8.01-8.01s3.59-8.01,8.01-8.01,8.01,3.59,8.01,8.01-3.59,8.01-8.01,8.01ZM189.99,133.79c-3.59,0-6.51,2.92-6.51,6.51s2.92,6.51,6.51,6.51,6.51-2.92,6.51-6.51-2.92-6.51-6.51-6.51Z"/>
      <path class="cls-1" d="M215.96,148.31c-4.42,0-8.01-3.59-8.01-8.01s3.59-8.01,8.01-8.01,8.01,3.59,8.01,8.01-3.59,8.01-8.01,8.01ZM215.96,133.79c-3.59,0-6.51,2.92-6.51,6.51s2.92,6.51,6.51,6.51,6.51-2.92,6.51-6.51-2.92-6.51-6.51-6.51Z"/>
      <path class="cls-1" d="M202.38,140.98h-13.67l6.9-12.35,15.05.1-8.28,12.25ZM191.27,139.48h10.31l6.27-9.27-11.36-.08-5.22,9.34Z"/>
      <rect class="cls-1" x="197.99" y="126.37" width="1.5" height="14.85" transform="translate(-40.28 117.46) rotate(-30.04)"/>
      <rect class="cls-1" x="193.13" y="126.58" width="6.19" height="1.5"/>
      <path class="cls-1" d="M215.3,140.66l-6.03-11v-3.18h4.11c.99.05,1.75.79,1.81,1.71.03.48-.14.97-.47,1.34-.34.38-.83.61-1.34.63l-.06-1.5c.15,0,.24-.09.28-.13.06-.07.09-.16.09-.23,0-.14-.15-.3-.36-.31h-2.56s0,1.29,0,1.29l5.84,10.66-1.31.72Z"/>
    </g>
    <polygon class="cls-1" points="176.55 111.94 176.55 113.44 189.02 113.44 189.02 132.8 190.52 132.8 190.52 111.94 176.55 111.94"/>
    <g>
      <polygon class="cls-1" points="147.85 99.66 134.1 107.25 134.1 146.67 107.36 146.67 107.36 148.17 135.6 148.17 135.6 108.14 147.85 101.37 147.85 99.66"/>
      <polygon class="cls-1" points="174.89 111.94 174.89 77.95 149.51 63.88 149.51 98.74 149.5 98.74 149.5 100.46 149.51 100.45 149.51 148.17 160.34 148.17 160.34 92.75 152.65 97 152.65 98.71 158.84 95.29 158.84 146.67 151.01 146.67 151.01 101.48 151 101.48 151 95.26 151.01 95.26 151.01 66.43 173.39 78.84 173.39 109.52 173.4 109.52 173.4 115.75 173.39 115.75 173.39 146.45 166.64 146.45 166.64 113.44 171.75 113.44 171.75 111.94 165.14 111.94 165.14 147.95 174.89 147.95 174.89 113.44 174.89 113.44 174.89 111.94 174.89 111.94"/>
    </g>
  </g>
  <g>
    <path class="cls-1" d="M90.93,172.54c3.27,0,5.98,2.67,5.98,5.98v19.01c0,3.31-2.71,5.98-5.98,5.98h-19.01c-3.31,0-5.98-2.67-5.98-5.98v-19.01c0-3.31,2.67-5.98,5.98-5.98h19.01ZM90.93,197.83c.13,0,.26-.13.26-.3v-19.01c0-.17-.13-.3-.26-.3h-19.01c-.17,0-.3.13-.3.3v19.01c0,.17.13.3.3.3h19.01Z"/>
    <path class="cls-1" d="M126.83,178.56v19.01c0,3.27-2.67,5.93-5.93,5.93h-13.46c-3.31,0-5.93-2.67-5.93-5.93v-19.01h5.63v19.01c0,.17.13.3.3.3h13.46c.17,0,.3-.13.3-.3v-19.01h5.63Z"/>
    <path class="cls-1" d="M136.04,184.19v13.37c0,.17.13.3.3.3h9.42v5.63h-9.42c-3.31,0-5.93-2.67-5.93-5.93v-27.18h5.63v8.17h9.72v5.63h-9.72Z"/>
    <path class="cls-1" d="M168.93,178.56v5.63h-13.85c-.17,0-.3.13-.3.3v19.01h-5.63v-19.01c0-3.27,2.67-5.93,5.93-5.93h13.85Z"/>
    <path class="cls-1" d="M197.14,184.5v9.37h-19.69v3.7c0,.17.13.3.3.3h19.39v5.63h-19.39c-3.27,0-5.93-2.67-5.93-5.93v-13.07c0-3.27,2.67-5.93,5.93-5.93h13.46c3.27,0,5.93,2.67,5.93,5.93ZM191.51,188.19v-3.7c0-.17-.13-.3-.3-.3h-13.46c-.17,0-.3.13-.3.3v3.7h14.06Z"/>
    <path class="cls-1" d="M227.02,184.5v13.07c0,3.27-2.67,5.93-5.93,5.93h-13.76v9.89h-5.63v-34.83h19.39c3.27,0,5.93,2.67,5.93,5.93ZM221.39,184.5c0-.17-.13-.3-.3-.3h-13.46c-.17,0-.3.13-.3.3v13.07c0,.17.13.3.3.3h13.46c.17,0,.3-.13.3-.3v-13.07Z"/>
    <path class="cls-1" d="M235.8,170.39v5.68h-5.63v-5.68h5.63ZM230.16,178.56h5.63v24.94h-5.63v-24.94Z"/>
    <path class="cls-1" d="M265.46,184.5v9.37h-19.69v3.7c0,.17.13.3.3.3h19.39v5.63h-19.39c-3.27,0-5.93-2.67-5.93-5.93v-13.07c0-3.27,2.67-5.93,5.93-5.93h13.46c3.27,0,5.93,2.67,5.93,5.93ZM259.83,188.19v-3.7c0-.17-.13-.3-.3-.3h-13.46c-.17,0-.3.13-.3.3v3.7h14.06Z"/>
  </g>
</svg>