<svg width="1441" height="281" viewBox="0 0 1441 281" fill="none" xmlns="http://www.w3.org/2000/svg">
<path d="M719.395 280.963C702.589 280.963 677.816 277.506 654.26 261.273C632.947 246.582 622.286 228.933 617.1 216.711C611.205 202.82 608.649 187.544 609.681 172.466V67.8057C609.681 65.5116 609.375 63.3203 608.762 61.2239C607.875 58.2337 606.536 53.7087 602.544 50.8054C599.173 48.361 594.383 47.3484 588.69 47.8784C586.295 48.0999 580.222 49.1046 575.561 53.5584C570.965 57.9489 570.263 63.2966 570.166 65.1873V177.782L570.078 178.787C569.15 189.316 565.594 199.505 559.796 208.246C551.014 221.497 532.869 236.377 508.305 238.395C482.758 240.483 464.581 228.008 457.952 222.541C437.759 205.897 434.566 184.285 434.123 175.773L434.09 174.602V138.172C433.187 134.391 431.34 129.384 427.59 124.416C421.413 116.236 413.47 112.486 410.349 111.252C402.672 108.222 395.463 108.056 390.769 108.452L389.745 108.539L363.262 108.515C347.416 108.507 332.513 101.735 322.368 89.9481C314.804 81.1592 310.683 69.649 310.723 57.4742L310.651 55.5519C310.57 55.006 310.417 54.4681 310.199 53.9697C309.482 52.3006 308.175 51.2168 307.224 50.4178C305.804 49.2391 302.853 46.7709 298.99 46.676C296.482 46.6127 294.393 47.5699 291.99 48.6853C289.539 49.8166 288.289 50.4652 287.49 51.4462C286.708 52.4113 286.353 54.1359 286.071 55.5282C285.974 55.987 285.91 56.4537 285.861 56.9205L286.079 107.811L286.063 108.277C285.644 119.574 281.16 129.921 273.442 137.413C271.442 139.351 269.225 141.107 266.846 142.626C258.935 147.705 251.395 148.805 246.411 149.532C244.242 149.849 242.04 150.165 240.145 150.45C237.565 161.501 237.161 163.226 235.565 166.469C230.984 175.773 222.468 183.256 211.574 187.544C196.058 193.667 182.478 189.814 175.18 187.742C158.664 183.058 148.866 173.724 145.648 170.654C142.777 167.917 135.141 160.639 130.229 148.702C127.963 143.18 126.544 137.366 126.02 131.417L125.947 130.578L125.334 86.9736L125.375 86.1905C125.391 85.882 125.375 85.5734 125.326 85.2728C125.076 83.7065 123.883 82.3142 123.375 81.7209C122.786 81.0326 119.577 77.5835 114.262 77.362C114.286 77.362 109.15 77.3383 105.714 80.0675C104.013 81.4203 103.287 82.5199 102.988 83.2556C102.868 83.6669 102.738 84.189 102.545 84.9089C101.69 88.1444 101.311 90.4544 100.948 92.6932C100.166 97.5267 99.0934 104.156 93.9968 111.418C91.5534 114.891 88.5051 118.063 85.1665 120.595C77.57 126.338 68.1832 129.368 57.9819 129.368C57.8932 129.368 57.8126 129.368 57.7239 129.368L0 129.344L0.0161285 82.6702L54.4014 82.6939C54.8369 80.2099 55.4659 77.0456 56.482 73.2088C57.0465 71.065 57.4497 69.5461 58.0868 67.7899C60.3931 61.4217 65.3365 52.0949 75.7636 43.8122C92.1259 30.8148 110.899 30.5142 116.262 30.7436C133.141 31.4397 149.019 39.0974 159.825 51.7389C166.591 59.6497 170.793 68.5019 172.325 78.0423C172.841 81.2541 173.034 84.5213 172.922 87.7805L173.486 128.047C173.639 129.146 173.922 130.222 174.349 131.243C175.494 134.035 177.405 135.847 178.792 137.176C180.252 138.568 183.284 141.455 188.389 142.903C189.647 143.259 191.494 143.781 192.824 144.034C193.211 142.405 193.59 140.783 193.808 139.834L194.09 138.608C195.614 132.073 196.13 129.866 198.05 126.29C204.283 114.669 214.904 109.148 220.67 106.885C223.831 105.651 225.299 105.414 238.484 103.499L238.282 55.6073L238.315 54.9349C238.468 52.0711 238.839 49.1995 239.411 46.3753C240.21 42.4753 242.314 32.1201 250.33 22.2869C258.112 12.7386 267.297 8.49046 271.717 6.45738C276.491 4.25027 286.41 -0.322185 300.232 0.0179799C313.933 0.366056 326.658 5.36569 338.045 14.8666C340.739 17.1132 348.916 23.9403 354.036 35.8302C356.222 40.909 357.585 46.2646 358.085 51.7705L358.165 53.0125L358.311 56.9205V57.5296C358.278 58.8744 358.577 59.6813 358.722 59.8475C359.149 60.3379 360.439 61.841 363.286 61.8489L387.793 61.8647C401.567 60.868 415.478 62.9722 428.107 67.9561C436.639 71.3261 452.896 79.5296 465.815 96.6328C473.605 106.948 478.96 119.052 481.282 131.646L481.661 133.711V173.858C481.839 175.867 482.847 182.125 488.54 186.816C490.185 188.177 496.201 192.551 504.322 191.887C514.305 191.072 519.668 183.137 519.894 182.805C521.321 180.646 522.224 178.225 522.571 175.583V64.0639C522.813 56.3113 525.208 36.5185 542.329 20.151C557.272 5.85616 574.948 2.28047 584.158 1.4261C601.738 -0.219345 617.882 3.89428 630.85 13.3161C647.736 25.5936 652.607 42.0323 654.438 48.2265C656.325 54.6105 657.268 61.216 657.244 67.8928V174.214L657.171 175.116C656.534 183.185 657.857 191.365 661.002 198.777C665.034 208.27 671.961 216.45 681.59 223.087C698.041 234.431 715.992 234.827 725.226 234.051L729.266 280.559C726.427 280.796 723.097 280.963 719.379 280.963H719.395Z" fill="#1D2A62"/>
<path d="M4.87126 105.216H0.0327148V106.798H4.87126V105.216Z" fill="white"/>
<path d="M715.234 257.879C711.985 257.752 708.719 257.476 705.533 257.04L705.751 255.474C708.888 255.901 712.098 256.178 715.291 256.297L715.226 257.879H715.234ZM695.961 255.253C692.792 254.493 689.655 253.56 686.639 252.484L687.187 250.997C690.147 252.049 693.235 252.966 696.348 253.71L695.969 255.245L695.961 255.253ZM677.679 248.718C674.776 247.302 671.929 245.704 669.22 243.972L670.099 242.643C672.76 244.344 675.55 245.91 678.397 247.302L677.679 248.718ZM661.381 238.292C658.898 236.259 656.503 234.06 654.269 231.75L655.438 230.658C657.632 232.92 659.97 235.08 662.414 237.074L661.381 238.292ZM647.979 224.44C646.019 221.885 644.213 219.195 642.592 216.466L643.987 215.675C645.576 218.357 647.35 220.991 649.269 223.499L647.979 224.448V224.44ZM506.604 215.92L506.459 214.346C509.628 214.069 512.749 213.46 515.733 212.518L516.225 214.021C513.128 214.995 509.895 215.635 506.604 215.92ZM496.79 215.714C493.581 215.295 490.371 214.528 487.258 213.428L487.807 211.941C490.815 213.001 493.903 213.745 497.008 214.148L496.798 215.714H496.79ZM525.176 210.074L524.362 208.713C527.047 207.163 529.62 205.304 531.991 203.192L533.071 204.362C530.612 206.546 527.95 208.468 525.176 210.074ZM478.412 209.267C476.372 208.049 474.46 206.712 472.751 205.296C472.025 204.695 471.299 204.062 470.614 203.413L471.727 202.266C472.396 202.891 473.089 203.5 473.791 204.078C475.444 205.438 477.283 206.728 479.259 207.906L478.42 209.259L478.412 209.267ZM638.245 207.875C637.003 204.932 635.947 201.878 635.1 198.817L636.656 198.406C637.487 201.404 638.519 204.394 639.737 207.274L638.245 207.875ZM539.66 197.211L538.353 196.285C538.765 195.732 539.039 195.32 539.184 195.099C540.636 192.915 541.869 190.574 542.845 188.137L544.345 188.723C543.329 191.254 542.047 193.683 540.531 195.961C540.377 196.198 540.079 196.626 539.652 197.211H539.66ZM464.324 196.016C462.541 193.351 461.041 190.463 459.88 187.425L461.388 186.872C462.509 189.799 463.945 192.583 465.67 195.154L464.324 196.024V196.016ZM633.157 189.443C632.713 186.294 632.471 183.082 632.439 179.902L634.052 179.886C634.084 183.003 634.318 186.152 634.753 189.229L633.157 189.443ZM546.885 179.412L545.289 179.182C545.41 178.367 545.506 177.545 545.579 176.722V169.84H547.192V176.793C547.111 177.711 547.014 178.573 546.885 179.412ZM457.437 178.091C457.267 176.904 457.154 175.781 457.09 174.649V168.511H458.703V174.61C458.759 175.646 458.864 176.722 459.033 177.861L457.437 178.083V178.091ZM634.278 170.417H632.665V160.94H634.278V170.417ZM194.05 168.297C193.873 168.297 193.696 168.297 193.518 168.297L193.55 166.715C196.679 166.778 199.615 166.272 202.421 165.156L202.663 165.061L203.268 166.525L203.026 166.62C200.163 167.751 197.228 168.297 194.05 168.297ZM183.817 166.707C183.043 166.501 182.301 166.288 181.583 166.082C179.188 165.402 176.841 164.524 174.599 163.471L175.293 162.047C177.454 163.06 179.72 163.906 182.027 164.563C182.736 164.769 183.478 164.974 184.244 165.18L183.817 166.707ZM211.582 161.201L210.429 160.093C211.695 158.828 212.711 157.443 213.429 155.972C213.63 155.568 213.767 155.212 214.501 152.175L216.074 152.539C215.3 155.75 215.146 156.122 214.88 156.66C214.082 158.282 212.969 159.817 211.574 161.201H211.582ZM547.192 160.362H545.579V150.885H547.192V160.362ZM458.703 159.033H457.09V149.556H458.703V159.033ZM166.253 158.416C164.059 156.755 162.455 155.22 161.681 154.485C160.931 153.765 160.043 152.91 159.076 151.874L160.269 150.806C161.205 151.811 162.035 152.61 162.801 153.346C163.551 154.058 165.116 155.553 167.237 157.159L166.253 158.408V158.416ZM634.278 151.463H632.665V141.986H634.278V151.463ZM153.358 144.027C152.689 142.808 152.084 141.551 151.56 140.269C150.858 138.56 150.286 136.796 149.85 135.008L151.423 134.636C151.842 136.345 152.39 138.038 153.06 139.676C153.56 140.902 154.14 142.112 154.786 143.275L153.366 144.027H153.358ZM218.251 143.307L216.679 142.951C217.792 138.196 217.904 137.73 218.412 136.788C218.945 135.799 219.598 134.842 220.356 133.948L221.598 134.961C220.912 135.768 220.324 136.63 219.84 137.524C219.437 138.268 219.348 138.592 218.251 143.307ZM547.192 141.408H545.579V131.931H547.192V141.408ZM458.703 140.087H457.09V135.886C456.784 134.233 456.396 132.572 455.945 130.95L457.501 130.531C457.969 132.224 458.372 133.956 458.687 135.673L458.703 135.815V140.087ZM634.278 132.508H632.665V123.031H634.278V132.508ZM229.025 129.621L228.372 128.173C228.702 128.031 228.985 127.92 229.211 127.825C229.759 127.612 231.654 127.295 238.049 126.354L238.291 127.92C235.323 128.355 230.356 129.083 229.807 129.297C229.598 129.376 229.331 129.487 229.033 129.621H229.025ZM247.887 126.385L247.516 124.843C249.807 124.305 251.694 123.53 253.452 122.406C254.234 121.908 254.976 121.346 255.653 120.745L256.734 121.916C255.992 122.572 255.185 123.19 254.331 123.735C252.411 124.969 250.363 125.808 247.887 126.385ZM148.883 125.436L148.745 115.959L150.358 115.935L150.495 125.412L148.883 125.436ZM547.192 122.454H545.579V112.977H547.192V122.454ZM452.735 122.145C451.437 119.313 449.905 116.552 448.163 113.95L449.51 113.087C451.292 115.761 452.864 118.593 454.195 121.505L452.727 122.153L452.735 122.145ZM262.048 113.649L260.508 113.174C261.088 111.363 261.427 109.425 261.5 107.415L261.484 104.045H263.096L263.113 107.439C263.032 109.63 262.677 111.711 262.048 113.657V113.649ZM634.278 113.562H632.665V104.085H634.278V113.562ZM57.9985 106.822H53.1761V105.24H57.9985C59.5872 105.24 61.1516 105.09 62.6435 104.789L62.9661 106.339C61.3694 106.664 59.7001 106.822 57.9985 106.822ZM43.5151 106.814H33.8542V105.232H43.5151V106.814ZM24.1932 106.806H14.5322V105.224H24.1932V106.806ZM442.357 106.545C440.252 104.243 437.937 102.068 435.47 100.082L436.494 98.8638C439.018 100.905 441.397 103.136 443.55 105.493L442.348 106.553L442.357 106.545ZM148.608 106.482L148.471 97.0047L150.084 96.981L150.221 106.458L148.608 106.482ZM547.192 103.507H545.579V94.0302H547.192V103.507ZM71.9497 102.099L70.8852 100.905C71.6271 100.272 72.7319 99.196 73.7641 97.7325C74.7238 96.3639 75.3528 95.0428 75.7963 93.4528L77.3527 93.872C76.8608 95.6441 76.1592 97.1155 75.0947 98.6343C74.1996 99.908 73.119 101.103 71.9497 102.099ZM427.696 94.6631C424.889 92.9939 422.027 91.57 419.196 90.4387L419.809 88.9752C422.72 90.1381 425.656 91.6016 428.534 93.3104L427.696 94.6631ZM634.278 94.6077H632.665V85.1306H634.278V94.6077ZM261.451 94.5603L261.411 85.0831H263.024L263.064 94.5524H261.451V94.5603ZM410.124 87.5671C407.051 86.8393 403.89 86.3172 400.721 86.0324L400.874 84.4582C404.124 84.7588 407.366 85.2809 410.511 86.0324L410.132 87.5671H410.124ZM148.342 87.5355V87.4485C148.366 86.9659 148.383 86.4912 148.383 85.9612C148.383 84.5689 148.27 83.1608 148.052 81.7922C147.866 80.6531 147.608 79.506 147.27 78.3827L148.818 77.9396C149.173 79.1263 149.447 80.3366 149.641 81.547C149.874 83.0026 149.995 84.4898 149.995 85.9612C149.995 86.5229 149.979 87.0292 149.955 87.4801V87.5117L148.342 87.5355ZM388.818 85.9929H381.488V84.4107H388.754C389.415 84.3553 390.221 84.2999 391.108 84.2604L391.189 85.8426C390.326 85.8821 389.536 85.9375 388.826 86.0008L388.818 85.9929ZM371.827 85.977H363.287C362.9 85.977 362.521 85.9612 362.142 85.9454L362.198 84.3632C362.561 84.3791 362.924 84.3791 363.287 84.387H371.827V85.977ZM547.192 84.5531H545.579V75.0759H547.192V84.5531ZM79.0946 84.5056L77.514 84.205C77.8688 82.4251 78.272 80.6847 78.7559 78.881C79.2397 77.0695 79.4736 76.1676 79.772 75.3449L79.9333 74.9098L81.4413 75.4636L81.288 75.8749C81.0139 76.6344 80.78 77.5046 80.3203 79.2449C79.8445 81.0486 79.4413 82.7573 79.0946 84.5056ZM352.448 84.0784C349.335 82.9393 346.448 81.3097 343.884 79.237L344.908 78.0188C347.336 79.9806 350.061 81.5233 353.005 82.5991L352.44 84.0864L352.448 84.0784ZM634.278 75.6534H632.665V67.6477C632.665 67.1889 632.665 66.7063 632.64 66.2L634.253 66.1525C634.269 66.6747 634.278 67.1809 634.278 67.6477V75.6534ZM261.371 75.606L261.33 66.1288H262.943L262.984 75.598H261.371V75.606ZM337.425 71.8958C335.804 69.1507 334.699 66.0734 334.142 62.7351L335.731 62.4819C336.255 65.6304 337.296 68.5258 338.82 71.1047L337.425 71.8958ZM143.23 70.0842C142.399 68.8897 141.641 67.972 141.012 67.2363C139.802 65.8203 138.423 64.4675 136.923 63.2176L137.964 62.0073C139.536 63.3126 140.972 64.7286 142.246 66.2158C142.899 66.9832 143.689 67.9325 144.56 69.1824L143.23 70.0763V70.0842ZM86.1427 67.5211L84.8928 66.5243C87.183 63.7714 89.4168 61.9994 90.2555 61.3269C90.8603 60.8523 91.4813 60.3856 92.1183 59.9505L93.0457 61.2478C92.4409 61.6671 91.8441 62.1022 91.2716 62.561C90.4652 63.2018 88.3281 64.9026 86.1427 67.529V67.5211ZM547.192 65.5988H545.579V64.7602C545.668 61.9361 546.103 58.9221 546.845 56.0267L548.409 56.4143C547.692 59.2068 547.272 62.0943 547.192 64.784V65.5988ZM129.004 58.2022C126.141 56.8652 123.125 55.908 120.045 55.3701L120.327 53.8117C123.553 54.3812 126.706 55.378 129.698 56.7782L129.004 58.2022ZM101.424 57.0393L100.884 55.5521C103.941 54.492 107.174 53.78 110.481 53.4478L110.642 55.022C107.457 55.3464 104.36 56.0188 101.416 57.0393H101.424ZM631.382 56.9839C631.221 56.3194 631.036 55.6391 630.834 54.9508C630.35 53.3291 629.633 50.8847 628.423 48.1159L629.907 47.4909C631.157 50.3546 631.899 52.8545 632.382 54.5078C632.592 55.2277 632.786 55.9318 632.955 56.62L631.382 56.9839ZM261.29 56.6596V56.1849C261.387 54.3575 261.621 52.5618 261.976 50.8056C262.169 49.8721 262.427 48.5984 262.846 47.1112L264.403 47.5384C264 48.9703 263.742 50.2123 263.556 51.122C263.209 52.807 262.992 54.5236 262.903 56.2324V56.6596H261.29ZM333.538 53.2421C333.215 50.4733 332.497 47.7678 331.393 45.2047C331.272 44.9278 331.151 44.6509 331.022 44.382L332.489 43.7254C332.618 44.0102 332.747 44.295 332.876 44.5877C334.038 47.2853 334.796 50.1331 335.134 53.0601L333.53 53.2421H333.538ZM551.748 47.7283L550.313 47.0084C551.813 44.1447 553.659 41.455 555.796 39.0105L557.022 40.0389C554.966 42.3885 553.192 44.9753 551.748 47.7283ZM623.738 40.0627C621.851 37.5708 619.649 35.332 617.189 33.4176L618.189 32.1756C620.762 34.177 623.06 36.5107 625.036 39.1134L623.738 40.0548V40.0627ZM268.233 39.1529L266.895 38.2748C267.338 37.6182 267.814 36.9854 268.306 36.3842C269.887 34.446 271.653 32.7689 273.717 31.2579L274.685 32.5237C272.733 33.9476 271.056 35.5377 269.564 37.3651C269.096 37.9347 268.653 38.5359 268.233 39.1529ZM325.844 36.7243C324.49 35.2608 323.264 34.1849 322.135 33.2515C321.433 32.6661 320.264 31.693 318.707 30.6172L319.643 29.3277C321.256 30.451 322.457 31.4557 323.183 32.049C323.909 32.6582 325.433 33.9239 327.046 35.6643L325.852 36.7243H325.844ZM563.957 33.734L563.006 32.4604C565.619 30.5776 568.481 28.9638 571.513 27.6506L572.159 29.0983C569.231 30.3561 566.473 31.9224 563.957 33.734ZM609.109 28.6474C606.287 27.4291 603.246 26.5194 600.069 25.9419L600.359 24.3834C603.658 24.9847 606.827 25.9261 609.754 27.1997L609.101 28.6474H609.109ZM282.935 27.9591L282.249 26.5273C284.741 25.3881 287.781 24.1145 291.507 23.3234L291.854 24.8739C288.281 25.6334 285.346 26.8674 282.935 27.967V27.9591ZM581.183 26.2504L580.844 24.6999C582.674 24.3122 584.529 24.0354 586.36 23.8613C587.392 23.7664 588.803 23.6477 590.585 23.6161L590.618 25.1983C588.892 25.2299 587.521 25.3407 586.513 25.4356C584.747 25.6017 582.949 25.8707 581.183 26.2425V26.2504ZM310.393 26.2346C307.418 25.1271 304.329 24.4467 301.224 24.2173L301.345 22.6431C304.603 22.8883 307.845 23.6003 310.966 24.7553L310.393 26.2346Z" fill="white"/>
<path d="M725.113 257.768L725.016 256.186C726.621 256.091 728.186 255.957 729.79 255.767L729.976 257.341C728.339 257.523 726.75 257.665 725.113 257.768Z" fill="white"/>
<path d="M720.339 281.002C712.025 281.002 705.17 280.211 700.606 279.475L708.315 233.419C716.952 234.811 739.121 236.607 758.451 223.309C770.434 215.058 776.257 205.541 779.031 199.007C782.176 191.594 783.498 183.414 782.861 175.345L782.789 174.443V68.0351C782.764 61.4375 783.708 54.824 785.595 48.4558C787.426 42.2617 792.288 25.823 809.183 13.5375C822.142 4.11573 838.287 0.00210925 855.867 1.64756C865.076 2.50984 882.753 6.08553 897.696 20.3804C914.808 36.7478 917.204 56.5407 917.445 64.2933V64.9894L917.454 175.812C917.8 178.454 918.695 180.883 920.123 183.035C920.349 183.367 925.719 191.301 935.695 192.124C943.816 192.789 949.831 188.406 951.477 187.045C957.17 182.354 958.178 176.097 958.355 174.087V133.94L958.734 131.875C961.065 119.289 966.412 107.178 974.21 96.8621C987.121 79.7668 1003.38 71.5554 1011.92 68.1854C1024.55 63.2016 1038.47 61.0973 1052.23 62.0941L1076.74 62.0783C1079.59 62.0783 1080.88 60.5752 1081.3 60.0768C1081.44 59.9107 1081.75 59.1038 1081.72 57.759V57.1498L1081.94 51.9999C1082.45 46.5019 1083.81 41.1383 1085.99 36.0596C1091.1 24.1617 1099.29 17.3426 1101.98 15.0959C1113.36 5.60297 1126.08 0.603331 1139.79 0.255255C1153.61 -0.0849097 1163.53 4.49545 1168.31 6.70257C1172.72 8.74356 1181.9 12.9838 1189.69 22.5321C1197.7 32.3652 1199.81 42.7205 1200.61 46.6205C1201.18 49.421 1201.55 52.3005 1201.7 55.1642L1201.73 55.8366L1201.53 103.729C1214.71 105.643 1216.18 105.88 1219.34 107.115C1225.12 109.377 1235.73 114.907 1241.96 126.512C1243.88 130.088 1244.39 132.279 1245.91 138.797L1246.21 140.063C1246.43 141.012 1246.81 142.634 1247.19 144.264C1248.51 144.018 1250.37 143.488 1251.63 143.132C1256.72 141.685 1259.76 138.797 1261.22 137.405C1262.61 136.076 1264.51 134.264 1265.66 131.472C1266.08 130.444 1266.37 129.376 1266.52 128.268L1267.09 88.002C1266.97 84.7427 1267.17 81.4756 1267.68 78.2717C1269.21 68.7313 1273.42 59.8791 1280.18 51.9682C1290.99 39.3268 1306.86 31.6691 1323.73 30.9729C1329.11 30.7514 1347.87 31.0441 1364.24 44.0416C1372.61 50.7025 1378.56 58.7636 1381.91 68.0193C1382.55 69.7676 1382.95 71.3023 1383.52 73.4224C1384.53 77.267 1385.16 80.4393 1385.6 82.9233L1439.98 82.8995L1440 129.573L1382.31 129.597C1371.98 129.652 1362.5 126.623 1354.84 120.832C1351.5 118.3 1348.45 115.128 1346 111.655C1340.91 104.393 1339.83 97.7718 1339.05 92.9304C1338.69 90.6996 1338.32 88.3896 1337.46 85.1778C1337.27 84.4421 1337.13 83.92 1337.01 83.5007C1336.71 82.765 1335.98 81.6575 1334.28 80.3048C1330.85 77.5755 1325.71 77.5835 1325.66 77.6072C1320.42 77.8287 1317.21 81.2699 1316.62 81.966C1316.11 82.5594 1314.92 83.9517 1314.67 85.518C1314.62 85.8186 1314.6 86.1271 1314.62 86.4357L1314.66 87.2109L1314.04 130.815L1313.97 131.654C1313.45 137.595 1312.04 143.409 1309.76 148.931C1304.86 160.868 1297.22 168.146 1294.34 170.884C1291.13 173.953 1281.33 183.288 1264.8 187.971C1257.51 190.036 1243.93 193.888 1228.4 187.765C1217.52 183.478 1209 175.994 1204.42 166.691C1202.82 163.447 1202.42 161.723 1199.84 150.679C1197.95 150.402 1195.77 150.078 1193.61 149.77C1188.57 149.034 1181.04 147.934 1173.08 142.832C1170.74 141.337 1168.52 139.581 1166.53 137.642C1158.82 130.159 1154.33 119.811 1153.91 108.515L1153.9 108.04L1154.11 57.1498C1154.07 56.6831 1154 56.2163 1153.91 55.7575C1153.62 54.3573 1153.27 52.6327 1152.49 51.6676C1151.69 50.6867 1150.44 50.0459 1147.99 48.9068C1145.57 47.7913 1143.48 46.8262 1140.99 46.8974C1137.12 46.9923 1134.18 49.4605 1132.76 50.6392C1131.8 51.4382 1130.5 52.522 1129.79 54.1912C1129.57 54.6975 1129.41 55.2275 1129.33 55.7733L1129.26 57.6957C1129.3 69.8704 1125.18 81.3806 1117.62 90.1696C1107.47 101.957 1092.57 108.72 1076.73 108.736L1050.26 108.76L1049.22 108.673C1044.52 108.277 1037.32 108.444 1029.64 111.473C1026.51 112.707 1018.57 116.465 1012.39 124.645C1008.64 129.613 1006.8 134.62 1005.89 138.402V175.424L1005.86 176.01C1005.43 184.53 1002.23 206.142 982.032 222.779C975.403 228.245 957.234 240.728 931.679 238.632C907.123 236.622 888.979 221.742 880.189 208.492C874.39 199.75 870.834 189.561 869.907 179.032L869.818 178.027V65.4245C869.721 63.5259 869.02 58.1861 864.423 53.7956C859.762 49.3339 853.69 48.3372 851.302 48.1157C845.609 47.5856 840.811 48.5982 837.448 51.0427C833.448 53.9459 832.118 58.4709 831.231 61.4612C830.61 63.5576 830.303 65.741 830.311 67.9639V172.687C831.352 187.765 828.795 203.041 822.892 216.932C817.699 229.17 807.038 246.827 785.716 261.502C762.741 277.324 738.145 280.994 720.275 280.994L720.339 281.002Z" fill="#1D2A62"/>
<path d="M1440.02 105.445H1435.18V107.028H1440.02V105.445Z" fill="white"/>
<path d="M720.46 258.488C719.984 258.488 719.517 258.488 719.057 258.48L719.081 256.898C719.533 256.898 719.992 256.906 720.46 256.906C723.218 256.906 725.984 256.795 728.694 256.574L728.823 258.148C726.073 258.369 723.258 258.48 720.452 258.488H720.46ZM738.524 256.89L738.234 255.332C741.403 254.754 744.548 254.018 747.58 253.132L748.04 254.651C744.959 255.553 741.758 256.305 738.532 256.89H738.524ZM757.249 251.4L756.62 249.944C759.564 248.718 762.459 247.31 765.225 245.76L766.023 247.136C763.209 248.718 760.257 250.15 757.249 251.4ZM774.216 241.899L773.265 240.618C775.894 238.735 778.329 236.781 780.7 234.645L781.789 235.808C779.369 237.983 776.894 239.977 774.216 241.891V241.899ZM788.619 228.925L787.401 227.889C789.506 225.5 791.474 222.984 793.24 220.413L794.579 221.299C792.78 223.926 790.772 226.489 788.627 228.925H788.619ZM939.727 216.26L939.646 214.678C942.791 214.52 945.944 214.013 949.025 213.167L949.46 214.694C946.267 215.564 942.993 216.086 939.735 216.26H939.727ZM929.888 215.698C926.639 215.161 923.453 214.259 920.413 213.017L921.034 211.553C923.961 212.748 927.026 213.618 930.155 214.132L929.888 215.691V215.698ZM799.522 213.001L798.078 212.289C798.853 210.778 799.578 209.22 800.24 207.661C800.804 206.34 801.328 204.987 801.812 203.627L803.336 204.149C802.844 205.533 802.304 206.917 801.732 208.27C801.054 209.86 800.312 211.458 799.522 213.001ZM958.621 211.158L957.88 209.75C961.5 207.914 964.218 205.96 965.855 204.647L966.879 205.873C965.178 207.234 962.371 209.259 958.621 211.158ZM911.784 208.349C909.115 206.522 906.607 204.394 904.317 202.044L905.486 200.953C907.696 203.231 910.123 205.28 912.712 207.052L911.784 208.349ZM973.766 198.943L972.492 197.978C974.427 195.534 976.081 192.852 977.419 190.012L978.879 190.677C977.492 193.627 975.766 196.404 973.758 198.943H973.766ZM805.965 194.893L804.385 194.569C805.038 191.515 805.498 188.375 805.756 185.258L807.36 185.384C807.102 188.572 806.627 191.776 805.957 194.893H805.965ZM898.349 194.323C896.712 191.531 895.406 188.541 894.462 185.424L896.011 184.973C896.914 187.971 898.164 190.851 899.744 193.532L898.349 194.323ZM982.024 181.508L980.451 181.168C980.943 178.969 981.25 176.833 981.346 174.8V171.88H982.959V174.839C982.846 176.999 982.532 179.23 982.024 181.508ZM805.917 175.844C805.877 175.037 805.828 174.285 805.772 173.589V166.295H807.385V173.526C807.441 174.175 807.489 174.942 807.53 175.765L805.917 175.836V175.844ZM894.47 175.844H892.858V166.327H894.47V175.844ZM1245.24 168.518C1242.35 168.439 1239.66 167.893 1237.03 166.857C1236.75 166.746 1236.22 166.541 1235.56 166.232L1236.23 164.8C1236.87 165.093 1237.35 165.283 1237.63 165.386C1240.08 166.351 1242.58 166.857 1245.28 166.936L1245.23 168.518H1245.24ZM1255.05 167.245L1254.64 165.71C1255.82 165.409 1256.95 165.093 1258.02 164.784C1259.96 164.239 1261.87 163.55 1263.71 162.743L1264.37 164.191C1262.47 165.022 1260.48 165.734 1258.47 166.303C1257.39 166.612 1256.25 166.936 1255.06 167.237L1255.05 167.245ZM982.959 162.364H981.346V152.847H982.959V162.364ZM1227.53 160.418C1226.57 159.31 1225.78 158.124 1225.17 156.889C1224.88 156.296 1224.72 155.885 1223.66 151.455L1225.23 151.091C1226.25 155.339 1226.4 155.742 1226.62 156.201C1227.17 157.317 1227.89 158.393 1228.76 159.397L1227.53 160.418ZM1272.88 159.326L1271.92 158.052C1274.51 156.178 1276.35 154.421 1277.24 153.575C1277.75 153.084 1278.36 152.499 1279.04 151.811L1280.21 152.902C1279.51 153.614 1278.89 154.216 1278.37 154.714C1277.46 155.584 1275.55 157.396 1272.88 159.326ZM894.47 156.81H892.858V147.294H894.47V156.81ZM807.385 156.779H805.772V147.262H807.385V156.779ZM1286.17 145.174L1284.77 144.382C1285.62 142.943 1286.37 141.432 1287 139.897C1287.55 138.568 1288.01 137.192 1288.39 135.807L1289.95 136.219C1289.55 137.666 1289.06 139.106 1288.49 140.49C1287.83 142.088 1287.05 143.663 1286.17 145.174ZM982.959 143.33H981.346L981.363 135.894C981.484 135.222 981.637 134.478 981.814 133.687L983.387 134.027C983.217 134.771 983.08 135.467 982.959 136.108V143.33ZM1221.48 142.175C1220.69 138.766 1220.57 138.41 1220.21 137.745C1219.52 136.472 1218.62 135.269 1217.52 134.17L1218.68 133.062C1219.89 134.272 1220.89 135.601 1221.64 137.01C1222.1 137.864 1222.25 138.362 1223.06 141.819L1221.49 142.175H1221.48ZM894.47 137.777H892.858V128.26H894.47V137.777ZM807.385 137.745H805.772V128.229H807.385V137.745ZM1209.77 129.415C1208.52 129.154 1205.46 128.695 1200.24 127.936L1200.48 126.37C1205.85 127.153 1208.81 127.604 1210.1 127.865L1209.77 129.415ZM1291.16 126.615L1289.55 126.591L1289.68 117.074L1291.3 117.098L1291.16 126.615ZM1190.59 126.196C1188.82 125.658 1187.23 124.93 1185.72 123.965C1184.64 123.276 1183.64 122.485 1182.74 121.615C1182.53 121.402 1182.32 121.188 1182.11 120.974L1183.31 119.906C1183.49 120.104 1183.68 120.302 1183.88 120.492C1184.69 121.283 1185.61 122.011 1186.61 122.644C1187.98 123.53 1189.44 124.194 1191.07 124.692L1190.59 126.203V126.196ZM986.169 125.056L984.669 124.479C985.862 121.497 987.306 118.577 988.959 115.817L990.346 116.616C988.733 119.305 987.33 122.145 986.169 125.056ZM894.47 118.751H892.858V109.235H894.47V118.751ZM807.385 118.72H805.772V109.203H807.385V118.72ZM1177.54 112.241C1177.19 110.777 1176.99 109.243 1176.93 107.692L1176.95 102.59H1178.57L1178.54 107.668C1178.6 109.092 1178.78 110.524 1179.11 111.885L1177.53 112.241H1177.54ZM995.814 108.918L994.564 107.914C996.62 105.445 998.902 103.104 1001.34 100.952L1002.42 102.131C1000.04 104.235 997.814 106.513 995.814 108.918ZM1291.42 107.589L1289.81 107.566L1289.95 98.0489L1291.56 98.0726L1291.42 107.589ZM1382.05 107.051C1380.26 107.051 1378.51 106.869 1376.83 106.513L1377.17 104.963C1378.73 105.295 1380.37 105.461 1382.04 105.461H1386.66V107.043H1382.04L1382.05 107.051ZM1396.37 107.043V105.461H1406.07V107.043H1396.37ZM1415.78 107.036V105.453H1425.48V107.036H1415.78ZM1367.88 102.131C1366.79 101.158 1365.8 100.058 1364.96 98.8558C1363.84 97.2578 1363.12 95.6914 1362.62 93.777L1364.18 93.3894C1364.63 95.1377 1365.27 96.5063 1366.29 97.9618C1367.06 99.0614 1367.95 100.074 1368.96 100.96L1367.88 102.131ZM894.47 99.718H892.858V90.2013H894.47V99.718ZM807.385 99.6864H805.772V90.1697H807.385V99.6864ZM1009.99 96.3639L1009.1 95.0507C1011.87 93.2391 1014.74 91.649 1017.65 90.32L1018.34 91.7518C1015.51 93.0492 1012.7 94.5997 1010 96.3639H1009.99ZM1178.61 93.0809H1176.99L1177.03 83.5562H1178.65L1178.61 93.0809ZM1291.69 88.5559L1290.08 88.5322L1290.09 87.6541C1290.07 87.2585 1290.05 86.7443 1290.05 86.1826C1290.05 84.7033 1290.17 83.224 1290.4 81.7684C1290.55 80.8112 1290.76 79.854 1291.01 78.9126L1292.57 79.316C1292.33 80.2021 1292.13 81.1118 1291.99 82.0136C1291.77 83.3901 1291.66 84.7903 1291.66 86.1826C1291.66 86.7127 1291.67 87.1952 1291.7 87.6224V88.5559H1291.69ZM1027.3 88.4768L1026.85 86.9579C1029.97 86.0798 1033.21 85.4153 1036.46 84.9881L1036.68 86.5544C1033.51 86.9737 1030.35 87.6145 1027.3 88.4768H1027.3ZM1051.3 86.2222C1049.58 86.0798 1047.89 86.0007 1046.23 85.9849L1046.25 84.4027C1047.95 84.4185 1049.67 84.4976 1051.38 84.6479H1055.93V86.2222H1051.3ZM1065.63 86.2064V84.6242H1075.34V86.2064H1065.63ZM1085.15 85.083L1084.71 83.5562C1087.77 82.7256 1090.63 81.4124 1093.22 79.6641L1094.14 80.9694C1091.41 82.8205 1088.38 84.2049 1085.15 85.0909V85.083ZM1360.88 84.3869C1360.55 82.7731 1360.17 81.1751 1359.74 79.498C1359.27 77.7339 1359.04 76.8558 1358.76 76.0964C1358.66 75.8353 1358.57 75.5821 1358.47 75.329L1359.97 74.7515C1360.08 75.0205 1360.18 75.2894 1360.29 75.5742C1360.58 76.397 1360.83 77.3067 1361.3 79.1025C1361.75 80.8112 1362.13 82.4329 1362.47 84.0784L1360.89 84.3869H1360.88ZM894.47 80.6846H892.858V71.1679H894.47V80.6846ZM807.385 80.653H805.772V71.1363H807.385V80.653ZM1101.26 74.1819L1099.96 73.2564C1101.75 70.8198 1103.06 68.0194 1103.85 64.9342L1105.41 65.3218C1104.58 68.5969 1103.18 71.5872 1101.26 74.1898V74.1819ZM1178.69 74.0474H1177.07L1177.11 64.5228H1178.73L1178.69 74.0474ZM1296.42 70.8989L1295.07 70.0367C1296.09 68.502 1297.02 67.3628 1297.8 66.4531C1298.92 65.1399 1300.17 63.8821 1301.55 62.6954L1302.61 63.8821C1301.3 65.0133 1300.1 66.2157 1299.03 67.4656C1298.54 68.0431 1297.51 69.2377 1296.42 70.891L1296.42 70.8989ZM1353.63 67.4182C1351.55 64.9817 1349.54 63.3837 1348.79 62.7824C1348.08 62.2287 1347.36 61.6987 1346.62 61.2003L1347.52 59.895C1348.29 60.4092 1349.06 60.9709 1349.79 61.5484C1350.58 62.1733 1352.69 63.8425 1354.87 66.3977L1353.63 67.4103V67.4182ZM892.607 61.754C892.228 58.6846 891.495 55.6311 890.406 52.6882L891.922 52.1503C893.051 55.2118 893.817 58.3761 894.212 61.5642L892.607 61.754ZM807.804 61.7461L806.207 61.5325C806.522 59.2384 807.014 56.9522 807.667 54.7372C807.876 54.0173 808.143 53.1392 808.465 52.1503L809.997 52.6329C809.675 53.6059 809.425 54.4682 809.215 55.1802C808.578 57.324 808.102 59.5311 807.804 61.7461ZM1310.47 58.7005L1309.75 57.2844C1312.73 55.8288 1315.88 54.7767 1319.11 54.1438L1319.42 55.6944C1316.34 56.2956 1313.33 57.3003 1310.47 58.6926V58.7005ZM1338.13 57.1025C1335.16 56.1136 1332.03 55.4729 1328.84 55.196L1328.99 53.6217C1332.3 53.9065 1335.55 54.5789 1338.66 55.6073L1338.14 57.1025H1338.13ZM1106.38 55.7102L1104.77 55.6548L1104.83 54.0647C1105.08 51.3118 1105.69 48.6537 1106.65 46.1144L1108.16 46.6602C1107.25 49.073 1106.68 51.5966 1106.44 54.1676L1106.38 55.7181V55.7102ZM1177.05 55.0852C1176.93 53.8274 1176.74 52.5696 1176.49 51.3355C1176.24 50.0698 1175.85 48.1554 1175.09 45.972L1176.61 45.4657C1177.4 47.744 1177.81 49.7217 1178.07 51.027C1178.34 52.3164 1178.53 53.6296 1178.65 54.9428L1177.05 55.0852ZM886.164 44.3582C884.551 41.9533 882.656 39.6987 880.527 37.6577C880.374 37.5153 880.221 37.365 880.068 37.2226L881.172 36.0755C881.334 36.2258 881.495 36.3761 881.648 36.5265C883.866 38.6466 885.834 40.9882 887.511 43.4959L886.164 44.3661V44.3582ZM813.796 44.0734L812.392 43.2902C814.062 40.4265 816.062 37.8238 818.328 35.5455L819.481 36.653C817.304 38.8364 815.392 41.3362 813.796 44.0813V44.0734ZM1112.78 38.607L1111.51 37.6261C1113.68 34.9285 1115.83 33.1327 1116.87 32.2625C1117.35 31.867 1117.91 31.4082 1118.59 30.8702L1119.59 32.1122C1118.92 32.6264 1118.38 33.0773 1117.98 33.4175C1116.92 34.2956 1114.85 36.0281 1112.79 38.5991L1112.78 38.607ZM1170.69 37.8397L1170.49 37.5944C1168.6 35.2765 1166.39 33.3305 1163.74 31.6376L1164.62 30.3086C1167.42 32.0885 1169.74 34.1453 1171.74 36.5977L1171.96 36.8666L1170.69 37.8397ZM872.479 31.6297C869.786 30.0712 866.866 28.7818 863.81 27.7929L864.318 26.2899C867.487 27.3183 870.503 28.6552 873.302 30.2611L872.487 31.6218L872.479 31.6297ZM826.916 30.9098L826.094 29.5491C828.884 27.9195 831.932 26.6221 835.15 25.6886L835.609 27.2075C832.521 28.1094 829.593 29.3513 826.916 30.9098ZM1155.25 27.3578C1152.07 26.013 1149.18 25.1744 1146.17 24.7156L1146.41 23.1493C1149.56 23.6239 1152.57 24.4941 1155.89 25.9022L1155.25 27.3578ZM1127.68 27.2629L1127.02 25.8231C1130.09 24.4704 1133.29 23.5527 1136.52 23.1018L1136.74 24.6681C1133.66 25.0953 1130.62 25.9734 1127.68 27.2629ZM854.504 25.7678C854.149 25.7282 853.827 25.6966 853.536 25.6649C852.31 25.5542 850.633 25.4197 848.504 25.4197C847.319 25.4197 846.125 25.4592 844.964 25.5462L844.843 23.972C846.045 23.885 847.27 23.8375 848.504 23.8375C850.698 23.8375 852.423 23.972 853.689 24.0907C853.988 24.1223 854.326 24.1539 854.689 24.1935L854.504 25.7678Z" fill="white"/>
<path d="M709.162 257.879C707.541 257.705 705.961 257.483 704.332 257.222L704.59 255.664C706.194 255.925 707.743 256.131 709.339 256.305L709.162 257.879Z" fill="white"/>
</svg>
